
<svg version="1.2" xmlns="http://www.w3.org/2000/svg" viewBox="0 0 2170 2170" width="20" height="20"><path fill-rule="evenodd" fill="#ffffff" d="m1318 788.2h79.6v373.6h-45.5c-18.7 0-34-15.1-34-33.8-32.1 23.4-71.7 37.4-114.5 37.4-107.2 0-194.1-86.8-194.1-193.9 0-107.1 86.9-193.9 194.1-193.9 42.7-0.2 82.3 13.7 114.4 37.2zm-329.2-108c0 22.6-3 41-17.7 62.7l-1.8 2c-3.2 3.6-10.7 12.2-14.3 16.8l-255.5 320.6h289.2v45.4c0 18.8-15.3 34-34.1 34h-374.6v-21.4c0-26.2 6.5-37.9 14.7-50.1l272.3-337.1h-275.7v-85.1h397.5zm505.3 481.6c-15.7 0-28.4-12.7-28.4-28.3v-465.4h85.2v493.7zm308.7-386.8c107.9 0 195.4 87.5 195.4 195.3 0 107.9-87.5 195.3-195.4 195.3-107.9 0-195.4-87.5-195.4-195.3 0-107.8 87.4-195.3 195.4-195.3zm-599.3 310.4c63.1 0 114.2-51.1 114.2-114.1 0-62.9-51.1-114-114.2-114-63.1 0-114.2 51.1-114.2 114 0 63.1 51.2 114.1 114.2 114.1zm599.3-0.1c63.4 0 114.9-51.5 114.9-114.9 0-63.4-51.5-114.8-114.9-114.8-63.5 0-114.9 51.4-114.9 114.8-0.1 63.4 51.3 114.9 114.9 114.9z"/><path fill="#ffffff" d="m667.1 2094c-126.5 0-253.5 4.2-380.1-0.5-149.7-6-264.2-131.6-264.2-281.4 0-483.4 0.9-966.9 0-1450.8 0-165.5 129.3-280.9 278.1-285.1 155.7-4.2 311.9-0.9 468.1-0.9 2.8 0 6.5-1.4 7.9 3.2-0.9 8.3-9.3 9.3-14.4 12.5-91.8 53.8-175.7 118.2-246.1 197.9-116.3 131.6-197 282.7-224.3 458.4-48.2 310.1 48.7 573.4 267.9 793.1 38.9 39.4 44 70 13 122.8-37.5 63.5-94.6 106.6-155.3 146-6.5 3.7-13 8.3-19.5 12.5-9.7 8.3-3.7 12.5 4.6 16.2 1.9 4.2 4.2 7.9 7 11.6 53.3 47.3 103.8 97.8 156.2 146 24.6 22.7 49.1 46.4 72.8 70 9.8 9.1 26 11.9 28.3 28.5z"/><path fill="#ffffff" d="m667.1 2094c-2.3-16.2-18.5-19-28.3-28.7-23.6-24.1-48.2-47.3-72.8-70-52.4-48.2-102.9-98.7-156.2-146-2.8-3.7-5.1-7.4-7-11.6 118.2 23.2 233.6 7.4 347.2-27.3 38.5-11.6 76.9-23.2 115.9-32.9 26.4-7 54.2-5.6 79.7 3.7 293.9 101 584 91.8 869.5-33.4 116.3-51.4 222.5-123.8 312.4-214.1 4.6-4.6 7.9-11.6 16.2-12.1 4.2 6.5 1.9 13.4 1.9 20.4v271.2c0.9 154.8-123.3 280.9-278.1 282.3h-2.3c-166.9 0.9-333.7 0-500.6 0h-669.8c-9.1-1-18.4-1.5-27.7-1.5z"/></svg>